<?xml version="1.0" encoding="utf-8"?>
<!-- Generator: Adobe Illustrator 21.1.0, SVG Export Plug-In . SVG Version: 6.00 Build 0)  -->
<svg version="1.1" id="Layer_1" xmlns="http://www.w3.org/2000/svg" xmlns:xlink="http://www.w3.org/1999/xlink" x="0px" y="0px"
	 viewBox="0 0 1187 351" style="enable-background:new 0 0 1187 351;" xml:space="preserve">
<style type="text/css">
	.st0{fill:#3B8070;}
	.st1{fill:#FDE068;}
	.st2{fill:#EEAB37;}
	.st3{fill:#40B883;}
	.st4{filter:url(#filter-2);}
	.st5{fill:#34495E;}
	.st6{opacity:0.63;fill:#FCCA3F;}
	.st7{fill:url(#SVGID_1_);}
	.st8{fill:#FFFFFF;stroke:#211213;stroke-width:0.75;stroke-miterlimit:10;}
</style>
<filter  filterUnits="objectBoundingBox" height="200%" id="filter-2" width="200%" x="-50%" y="-50%">
	<feGaussianBlur  in="SourceAlpha" result="shadowBlurInner1" stdDeviation="17.5"></feGaussianBlur>
	<feOffset  dx="0" dy="0" in="shadowBlurInner1" result="shadowOffsetInner1"></feOffset>
	<feComposite  in="shadowOffsetInner1" in2="SourceAlpha" k2="-1" k3="1" operator="arithmetic" result="shadowInnerInner1">
		</feComposite>
	<feColorMatrix  in="shadowInnerInner1" type="matrix" values="0 0 0 0 0   0 0 0 0 0   0 0 0 0 0  0 0 0 0.06 0"></feColorMatrix>
</filter>
<g>
	<path class="st0" d="M18.3,278.8l2.1-2.9l97.3-184.6l0.2-2L75,8.9c-3.6-6.7-13.7-5-14.9,2.5L18.3,278.8z"/>
	<path class="st1" d="M153.1,341.4l112.7-62.8L233.6,80.4c-1-6.2-8.6-8.7-13-4.2L18.3,278.8l112,62.5
		C137.4,345.3,146,345.3,153.1,341.4"/>
	<path class="st0" d="M149.1,150.4l31.9-32.7l-31.9-61c-3-5.8-11.5-5.8-14.5,0l-17.1,32.5V92L149.1,150.4z"/>
	<path class="st2" d="M153.1,339.5c-7.1,3.9-15.7,3.9-22.8,0L19.2,277.9l-0.9,1l112,62.5c7.1,4,15.7,4,22.8,0l112.7-62.8l-0.3-1.7
		L153.1,339.5z"/>
	<g>
		<g>
			<path id="path-1" class="st3" d="M19.5,276.7l1.6-3L117.3,91L74.6,10.1C71,3.4,62,5.1,60.8,12.6L19.5,276.7z"/>
		</g>
		<g class="st4">
			<path id="path-1_1_" class="st3" d="M19.5,276.7l1.6-3L117.3,91L74.6,10.1C71,3.4,62,5.1,60.8,12.6L19.5,276.7z"/>
		</g>
	</g>
	<g>
		<g>
			<path id="path-3" class="st0" d="M217.2,278.8l48.5-0.3L148.5,58.1c-2.9-5.6-10.1-6.2-13-0.6l-17.2,33l-0.5,1.7L217.2,278.8z"/>
		</g>
	</g>
	<polyline class="st5" points="217.2,278.8 117.6,89 18.3,278.8 19.2,277.9 19.2,277.9 	"/>
	<path class="st6" d="M264.6,278.1L232.7,81.4c-1-6.2-7.3-8.7-11.7-4.3L19.4,278.5l110.8,61.9c7,3.9,15.6,3.9,22.6,0L264.6,278.1z"
		/>
	<linearGradient id="SVGID_1_" gradientUnits="userSpaceOnUse" x1="142.0313" y1="197.2698" x2="142.0313" y2="269.9393">
		<stop  offset="0" style="stop-color:#FCCA3F;stop-opacity:0"/>
		<stop  offset="0.9996" style="stop-color:#FCCA3F"/>
	</linearGradient>
	<path class="st7" d="M264.6,278.1L232.7,81.4c-1-6.2-7.3-8.7-11.7-4.3L19.4,278.5l110.8,61.9c7,3.9,15.6,3.9,22.6,0L264.6,278.1z"
		/>
</g>
<path d="M457.6,63.8v2.3H375v70.3h72.2v2.3H375v70.7h-2.5V63.8H457.6z"/>
<rect x="489.5" y="107.5" width="2.5" height="101.9"/>
<path d="M532.1,209.4V107.5h0.6c1,0,1.5,0.6,1.5,1.7l0.3,28.3c1.5-5.1,3.3-9.6,5.4-13.5c2.1-3.9,4.7-7.2,7.6-9.9
	c2.9-2.7,6.2-4.7,9.9-6.1c3.7-1.4,7.9-2.1,12.5-2.1c3.3,0,6.4,0.3,9.3,1c2.8,0.7,5.6,1.7,8.2,2.9l-0.4,0.8c-0.1,0.2-0.3,0.4-0.4,0.6
	c-0.1,0.2-0.3,0.3-0.7,0.3c-0.3,0-0.9-0.2-1.7-0.5c-0.8-0.3-1.8-0.7-3.1-1.1c-1.3-0.4-2.8-0.8-4.7-1.1c-1.8-0.3-4-0.5-6.5-0.5
	c-9.1,0-16.4,3-22.1,8.9c-5.6,6-10.1,14.4-13.3,25.4v67H532.1z"/>
<path d="M650.3,105.8c5.3,0,10.3,1,15,2.9c4.6,1.9,8.7,4.7,12.1,8.5c3.4,3.7,6.1,8.3,8.1,13.8c1.9,5.4,2.9,11.7,2.9,18.8
	c0,0.3-0.1,0.6-0.4,0.8c-0.2,0.2-0.5,0.3-0.9,0.3h-78.6c-0.1,1-0.2,1.9-0.2,2.8c0,0.9,0,1.8,0,2.8c0,8.5,1,15.9,3,22.4
	c2,6.5,4.9,11.9,8.6,16.3c3.7,4.4,8.2,7.8,13.4,10c5.2,2.3,11,3.4,17.4,3.4c5.8,0,10.7-0.6,14.8-1.9c4.1-1.2,7.6-2.6,10.3-4.2
	c2.7-1.5,4.8-2.9,6.2-4.2c1.4-1.2,2.3-1.9,2.8-1.9c0.3,0,0.6,0.1,0.8,0.4l0.4,0.4c-1.2,1.5-2.9,3-5.3,4.5c-2.3,1.6-5.1,3-8.2,4.3
	c-3.2,1.3-6.6,2.4-10.4,3.2c-3.7,0.8-7.6,1.2-11.5,1.2c-7,0-13.3-1.2-18.8-3.7c-5.5-2.5-10.2-6-14.1-10.7
	c-3.8-4.6-6.8-10.3-8.9-17.1c-2.1-6.7-3.1-14.4-3.1-22.9c0-7.5,1-14.3,3-20.5c2-6.2,4.9-11.5,8.7-16c3.8-4.4,8.5-7.9,14-10.4
	C637,107,643.3,105.8,650.3,105.8z M650.3,107.9c-6.1,0-11.6,1-16.5,3c-4.9,2-9.1,4.8-12.6,8.3c-3.5,3.6-6.4,7.9-8.5,13
	c-2.1,5.1-3.5,10.6-4.1,16.7h77.5c0-6.6-0.9-12.4-2.7-17.5c-1.8-5.1-4.3-9.4-7.5-12.8c-3.2-3.5-7-6.1-11.4-7.9
	C660.1,108.8,655.4,107.9,650.3,107.9z"/>
<path d="M726.6,64.6l103.1,140.3c-0.1-0.3-0.1-0.7-0.1-1.1c0-0.4,0-0.7,0-1.1v-139h2.1v145.6h-0.6c-0.4,0-0.8-0.2-1.1-0.7
	l-103.6-141c0.1,0.4,0.1,0.9,0.1,1.3c0,0.5,0,0.9,0,1.2v139.2h-2.1V63.8h0.8C725.8,63.8,726.3,64,726.6,64.6z"/>
<path d="M874.8,107.5v65.3c0,5.7,0.6,10.8,1.9,15.2c1.2,4.5,3.2,8.3,5.8,11.4c2.6,3.1,5.8,5.5,9.7,7.1c3.9,1.6,8.5,2.4,13.8,2.4
	c8,0,15.3-2.1,22-6.3c6.7-4.2,12.6-10.1,17.7-17.6v-77.6h2.5v101.9h-0.6c-1,0-1.5-0.6-1.5-1.7l-0.4-19.6c-2.4,3.5-5.1,6.6-8,9.5
	c-2.9,2.8-6.1,5.3-9.5,7.2c-3.4,2-7,3.5-10.7,4.6s-7.6,1.6-11.5,1.6c-11.4,0-19.8-3.4-25.4-10.1c-5.5-6.7-8.3-16.1-8.3-28.2v-65.3
	H874.8z"/>
<path d="M1008.8,157.6l-36.6-50.1h2.3c0.6,0,1,0.2,1.2,0.6c0.3,0.4,0.5,0.7,0.6,0.9l34.2,47.3c0.1-0.3,0.3-0.5,0.4-0.7
	c0.1-0.2,0.3-0.5,0.5-0.8l33.3-45.8c0.2-0.3,0.5-0.7,0.8-1c0.3-0.3,0.7-0.5,1.1-0.5h2.3l-36.7,49.8l38.2,52.1h-2.3
	c-0.6,0-1-0.2-1.2-0.6c-0.3-0.4-0.5-0.7-0.6-0.9l-35.8-49.3c-0.1,0.3-0.3,0.8-0.8,1.5l-34.7,47.9c-0.3,0.3-0.6,0.7-0.8,1
	c-0.3,0.3-0.6,0.5-1,0.5h-2.3L1008.8,157.6z"/>
<path d="M1098,211.1c-6,0-10.6-1.6-14-4.9c-3.4-3.3-5.1-8.6-5.1-16.1v-76.1H1062c-1,0-1.5-0.3-1.5-1v-0.6l18.3-0.4l0.8-41
	c0-0.3,0.1-0.7,0.3-1c0.2-0.3,0.4-0.5,0.8-0.5h0.6v42.4h34.7v2.1h-34.7v76.1c0,3.5,0.4,6.4,1.3,8.8c0.9,2.4,2.1,4.3,3.6,5.8
	c1.5,1.5,3.3,2.6,5.3,3.3c2,0.7,4.2,1,6.5,1c2.9,0,5.5-0.5,7.6-1.4c2.2-0.9,4-1.9,5.6-2.9c1.5-1,2.8-2,3.7-2.9
	c0.9-0.9,1.6-1.4,2-1.4c0.3,0,0.6,0.1,0.8,0.4l0.4,0.4c-1,1.4-2.3,2.7-3.8,3.9c-1.5,1.2-3.1,2.3-4.9,3.1c-1.8,0.9-3.6,1.5-5.6,2
	C1101.9,210.8,1100,211.1,1098,211.1z"/>
<g>
	<path d="M376.8,273.6l20.4,27.8c0-0.1,0-0.1,0-0.2c0-0.1,0-0.1,0-0.2v-27.6h0.4v28.9h-0.1c-0.1,0-0.2,0-0.2-0.1l-20.5-27.9
		c0,0.1,0,0.2,0,0.3c0,0.1,0,0.2,0,0.2v27.6h-0.4v-28.9h0.2C376.6,273.4,376.7,273.5,376.8,273.6z"/>
	<path d="M406.1,282.1v13c0,1.1,0.1,2.1,0.4,3c0.2,0.9,0.6,1.6,1.1,2.3c0.5,0.6,1.2,1.1,1.9,1.4c0.8,0.3,1.7,0.5,2.7,0.5
		c1.6,0,3-0.4,4.4-1.3c1.3-0.8,2.5-2,3.5-3.5v-15.4h0.5v20.2h-0.1c-0.2,0-0.3-0.1-0.3-0.3l-0.1-3.9c-0.5,0.7-1,1.3-1.6,1.9
		c-0.6,0.6-1.2,1-1.9,1.4c-0.7,0.4-1.4,0.7-2.1,0.9c-0.7,0.2-1.5,0.3-2.3,0.3c-2.3,0-3.9-0.7-5-2c-1.1-1.3-1.6-3.2-1.6-5.6v-13
		H406.1z"/>
	<path d="M432.7,292l-7.3-9.9h0.5c0.1,0,0.2,0,0.2,0.1c0.1,0.1,0.1,0.1,0.1,0.2l6.8,9.4c0-0.1,0.1-0.1,0.1-0.1c0,0,0.1-0.1,0.1-0.2
		l6.6-9.1c0-0.1,0.1-0.1,0.2-0.2c0.1-0.1,0.1-0.1,0.2-0.1h0.5l-7.3,9.9l7.6,10.3h-0.5c-0.1,0-0.2,0-0.2-0.1
		c-0.1-0.1-0.1-0.1-0.1-0.2l-7.1-9.8c0,0.1-0.1,0.2-0.2,0.3L426,302c-0.1,0.1-0.1,0.1-0.2,0.2c-0.1,0.1-0.1,0.1-0.2,0.1h-0.5
		L432.7,292z"/>
	<path d="M450.4,302.6c-1.2,0-2.1-0.3-2.8-1c-0.7-0.6-1-1.7-1-3.2v-15.1h-3.3c-0.2,0-0.3-0.1-0.3-0.2V283l3.6-0.1l0.2-8.1
		c0-0.1,0-0.1,0.1-0.2c0-0.1,0.1-0.1,0.2-0.1h0.1v8.4h6.9v0.4h-6.9v15.1c0,0.7,0.1,1.3,0.3,1.7c0.2,0.5,0.4,0.9,0.7,1.2
		c0.3,0.3,0.7,0.5,1.1,0.6c0.4,0.1,0.8,0.2,1.3,0.2c0.6,0,1.1-0.1,1.5-0.3c0.4-0.2,0.8-0.4,1.1-0.6c0.3-0.2,0.5-0.4,0.7-0.6
		c0.2-0.2,0.3-0.3,0.4-0.3c0.1,0,0.1,0,0.2,0.1l0.1,0.1c-0.2,0.3-0.5,0.5-0.8,0.8s-0.6,0.4-1,0.6s-0.7,0.3-1.1,0.4
		C451.2,302.6,450.8,302.6,450.4,302.6z"/>
	<path d="M474.7,281.7c1.4,0,2.7,0.3,3.8,0.8s2,1.2,2.8,2.1c0.7,0.9,1.3,2,1.7,3.3c0.4,1.3,0.6,2.7,0.6,4.3c0,1.6-0.2,3-0.6,4.3
		c-0.4,1.3-1,2.4-1.7,3.3c-0.8,0.9-1.7,1.6-2.8,2.1c-1.1,0.5-2.4,0.7-3.8,0.7c-1.4,0-2.7-0.2-3.8-0.7c-1.1-0.5-2-1.2-2.8-2.1
		c-0.7-0.9-1.3-2-1.7-3.3c-0.4-1.3-0.6-2.7-0.6-4.3c0-1.6,0.2-3,0.6-4.3s1-2.4,1.7-3.3c0.7-0.9,1.7-1.6,2.8-2.1
		S473.3,281.7,474.7,281.7z M474.7,302.1c1.4,0,2.6-0.2,3.6-0.7c1-0.5,1.9-1.2,2.6-2c0.7-0.9,1.2-1.9,1.6-3.1s0.5-2.6,0.5-4.1
		c0-1.5-0.2-2.8-0.5-4.1s-0.9-2.3-1.6-3.2c-0.7-0.9-1.6-1.6-2.6-2.1c-1-0.5-2.3-0.7-3.6-0.7c-1.4,0-2.6,0.2-3.6,0.7
		c-1,0.5-1.9,1.2-2.6,2.1c-0.7,0.9-1.2,1.9-1.6,3.2s-0.5,2.6-0.5,4.1c0,1.5,0.2,2.8,0.5,4.1s0.9,2.3,1.6,3.1c0.7,0.9,1.6,1.5,2.6,2
		C472.1,301.9,473.3,302.1,474.7,302.1z"/>
	<path d="M489.3,302.3v-20.2h0.1c0.2,0,0.3,0.1,0.3,0.3l0.1,3.9c0.5-0.7,1-1.3,1.6-1.9c0.6-0.6,1.2-1,1.9-1.4
		c0.7-0.4,1.4-0.7,2.1-0.9c0.7-0.2,1.5-0.3,2.3-0.3c2.2,0,3.9,0.7,5,2c1.1,1.3,1.7,3.2,1.7,5.6v13h-0.5v-13c0-1.1-0.1-2.1-0.4-3
		c-0.2-0.9-0.6-1.6-1.1-2.3c-0.5-0.6-1.2-1.1-1.9-1.4s-1.7-0.5-2.7-0.5c-1.6,0-3,0.4-4.4,1.3c-1.3,0.8-2.5,2-3.5,3.5v15.4H489.3z"/>
	<path d="M537.2,273.4v0.5h-16.4v13.9h14.3v0.5h-14.3v14h-0.5v-28.9H537.2z"/>
	<path d="M544.9,274.6c0,0.3-0.1,0.5-0.4,0.8c-0.2,0.2-0.5,0.3-0.8,0.3c-0.3,0-0.6-0.1-0.8-0.3c-0.2-0.2-0.3-0.5-0.3-0.8
		c0-0.3,0.1-0.6,0.3-0.8c0.2-0.2,0.5-0.3,0.8-0.3c0.3,0,0.6,0.1,0.8,0.3C544.8,274,544.9,274.3,544.9,274.6z M544,282.1v20.2h-0.5
		v-20.2H544z"/>
	<path d="M551.9,302.3v-20.2h0.1c0.2,0,0.3,0.1,0.3,0.3l0.1,5.6c0.3-1,0.6-1.9,1.1-2.7c0.4-0.8,0.9-1.4,1.5-2c0.6-0.5,1.2-0.9,2-1.2
		c0.7-0.3,1.6-0.4,2.5-0.4c0.7,0,1.3,0.1,1.8,0.2c0.6,0.1,1.1,0.3,1.6,0.6l-0.1,0.2c0,0-0.1,0.1-0.1,0.1c0,0-0.1,0.1-0.1,0.1
		c-0.1,0-0.2,0-0.3-0.1c-0.2-0.1-0.4-0.1-0.6-0.2c-0.3-0.1-0.6-0.2-0.9-0.2c-0.4-0.1-0.8-0.1-1.3-0.1c-1.8,0-3.3,0.6-4.4,1.8
		c-1.1,1.2-2,2.9-2.6,5v13.3H551.9z"/>
	<path d="M575.4,281.7c1.1,0,2,0.2,3,0.6c0.9,0.4,1.7,0.9,2.4,1.7s1.2,1.7,1.6,2.7s0.6,2.3,0.6,3.7c0,0.1,0,0.1-0.1,0.2
		c0,0-0.1,0.1-0.2,0.1h-15.6c0,0.2,0,0.4,0,0.6s0,0.4,0,0.6c0,1.7,0.2,3.2,0.6,4.4c0.4,1.3,1,2.4,1.7,3.2c0.7,0.9,1.6,1.5,2.7,2
		c1,0.5,2.2,0.7,3.5,0.7c1.1,0,2.1-0.1,2.9-0.4c0.8-0.2,1.5-0.5,2-0.8c0.5-0.3,1-0.6,1.2-0.8c0.3-0.2,0.5-0.4,0.5-0.4
		c0.1,0,0.1,0,0.2,0.1l0.1,0.1c-0.2,0.3-0.6,0.6-1,0.9c-0.5,0.3-1,0.6-1.6,0.9c-0.6,0.3-1.3,0.5-2.1,0.6c-0.7,0.2-1.5,0.2-2.3,0.2
		c-1.4,0-2.6-0.2-3.7-0.7c-1.1-0.5-2-1.2-2.8-2.1c-0.8-0.9-1.4-2-1.8-3.4c-0.4-1.3-0.6-2.8-0.6-4.5c0-1.5,0.2-2.8,0.6-4.1
		s1-2.3,1.7-3.2s1.7-1.6,2.8-2.1S574,281.7,575.4,281.7z M575.4,282.2c-1.2,0-2.3,0.2-3.3,0.6c-1,0.4-1.8,0.9-2.5,1.7
		s-1.3,1.6-1.7,2.6c-0.4,1-0.7,2.1-0.8,3.3h15.4c0-1.3-0.2-2.5-0.5-3.5c-0.4-1-0.9-1.9-1.5-2.5c-0.6-0.7-1.4-1.2-2.3-1.6
		S576.4,282.2,575.4,282.2z"/>
	<path d="M589,302.3v-29.7h0.5v13.7c0.9-1.4,2-2.5,3.3-3.3c1.3-0.8,2.7-1.2,4.2-1.2c2.6,0,4.6,0.8,6,2.5c1.4,1.7,2.1,4.3,2.1,7.8
		c0,1.5-0.2,2.8-0.6,4.1s-0.9,2.4-1.7,3.3c-0.7,0.9-1.7,1.7-2.8,2.2c-1.1,0.5-2.4,0.8-3.8,0.8c-1.5,0-2.8-0.3-3.9-0.9
		c-1.1-0.6-2.1-1.5-2.8-2.7l-0.1,3.1c0,0.1,0,0.1,0,0.2s-0.1,0.1-0.2,0.1H589z M597,282.2c-1.5,0-2.9,0.4-4.2,1.3
		c-1.3,0.8-2.4,2-3.3,3.5v11.4c0.9,1.4,1.9,2.4,2.9,3s2.3,0.9,3.8,0.9c1.4,0,2.6-0.3,3.7-0.8s1.9-1.2,2.6-2.1c0.7-0.9,1.2-2,1.6-3.2
		c0.3-1.2,0.5-2.5,0.5-4c0-3.4-0.6-5.8-1.9-7.5C601.4,283,599.5,282.2,597,282.2z"/>
	<path d="M623.3,302.3c-0.2,0-0.3-0.1-0.3-0.3l-0.1-3.3c-0.6,0.6-1.2,1.2-1.7,1.6c-0.6,0.5-1.2,0.9-1.8,1.2
		c-0.6,0.3-1.3,0.6-2.1,0.8c-0.7,0.2-1.6,0.3-2.5,0.3c-0.6,0-1.2-0.1-1.8-0.3c-0.6-0.2-1.2-0.5-1.7-0.9c-0.5-0.4-0.9-0.9-1.2-1.6
		c-0.3-0.6-0.5-1.4-0.5-2.3c0-0.9,0.3-1.7,0.8-2.4s1.3-1.3,2.4-1.8s2.5-0.9,4.1-1.2c1.7-0.3,3.6-0.5,5.9-0.5v-2.6
		c0-1.1-0.1-2-0.4-2.8c-0.2-0.8-0.6-1.5-1-2.1c-0.5-0.6-1-1-1.7-1.3s-1.5-0.5-2.4-0.5c-0.7,0-1.4,0.1-1.9,0.2
		c-0.6,0.2-1.1,0.3-1.5,0.6c-0.5,0.2-0.8,0.5-1.2,0.7c-0.3,0.3-0.6,0.5-0.9,0.7c-0.2,0.2-0.4,0.4-0.6,0.6c-0.2,0.2-0.3,0.2-0.3,0.2
		c-0.1,0-0.1,0-0.2-0.1l-0.1-0.1c1-1,2-1.8,3.1-2.4s2.3-0.8,3.7-0.8c1,0,1.9,0.2,2.7,0.5s1.4,0.8,1.9,1.4c0.5,0.6,0.9,1.4,1.1,2.3
		c0.2,0.9,0.4,1.9,0.4,3L623.3,302.3L623.3,302.3z M614.8,302.2c0.9,0,1.8-0.1,2.6-0.3c0.8-0.2,1.5-0.5,2.1-0.9s1.2-0.8,1.8-1.3
		s1.1-1,1.6-1.5v-6.2c-4.3,0.1-7.5,0.7-9.6,1.6s-3.1,2.3-3.1,4c0,0.8,0.1,1.5,0.4,2.1c0.3,0.6,0.6,1.1,1.1,1.4
		c0.4,0.4,0.9,0.7,1.5,0.8C613.6,302.1,614.2,302.2,614.8,302.2z"/>
	<path d="M640.9,283.9c-0.1,0.1-0.1,0.1-0.2,0.1c-0.1,0-0.3-0.1-0.5-0.3s-0.5-0.4-0.9-0.6c-0.4-0.2-0.9-0.4-1.5-0.6
		c-0.6-0.2-1.4-0.3-2.3-0.3c-0.9,0-1.6,0.1-2.3,0.4s-1.3,0.6-1.8,1c-0.5,0.4-0.9,0.9-1.2,1.5c-0.3,0.6-0.4,1.2-0.4,1.8
		c0,0.7,0.2,1.3,0.5,1.8c0.3,0.5,0.8,0.9,1.4,1.2s1.2,0.6,1.9,0.9c0.7,0.2,1.4,0.5,2.2,0.7c0.7,0.2,1.5,0.5,2.2,0.7
		c0.7,0.3,1.4,0.6,1.9,1c0.6,0.4,1,0.9,1.4,1.4c0.3,0.6,0.5,1.2,0.5,2.1s-0.1,1.6-0.4,2.3c-0.3,0.7-0.7,1.4-1.3,1.9
		c-0.6,0.5-1.3,1-2.1,1.3c-0.8,0.3-1.7,0.5-2.8,0.5c-0.7,0-1.4-0.1-1.9-0.2c-0.6-0.1-1.1-0.3-1.6-0.5c-0.5-0.2-0.9-0.5-1.4-0.8
		c-0.4-0.3-0.8-0.6-1.2-1l0.1-0.1c0,0,0.1-0.1,0.1-0.1s0.1,0,0.1,0c0.1,0,0.3,0.1,0.5,0.4c0.2,0.2,0.6,0.5,1,0.8
		c0.4,0.3,1,0.5,1.7,0.8c0.7,0.2,1.5,0.4,2.5,0.4s1.9-0.1,2.6-0.4c0.8-0.3,1.4-0.7,1.9-1.2s0.9-1.1,1.2-1.8c0.3-0.7,0.4-1.4,0.4-2.2
		c0-0.8-0.2-1.4-0.5-1.9c-0.3-0.5-0.8-1-1.4-1.3s-1.2-0.7-1.9-0.9c-0.7-0.2-1.4-0.5-2.2-0.7s-1.5-0.5-2.2-0.7
		c-0.7-0.2-1.4-0.6-1.9-0.9c-0.6-0.4-1-0.8-1.4-1.4s-0.5-1.2-0.5-2c0-0.7,0.2-1.3,0.5-1.9c0.3-0.6,0.7-1.2,1.3-1.6
		c0.5-0.5,1.2-0.9,2-1.1c0.8-0.3,1.6-0.4,2.5-0.4c1.1,0,2.1,0.2,3,0.5c0.9,0.3,1.7,0.8,2.5,1.5L640.9,283.9z"/>
	<path d="M655,281.7c1.1,0,2,0.2,3,0.6c0.9,0.4,1.7,0.9,2.4,1.7s1.2,1.7,1.6,2.7s0.6,2.3,0.6,3.7c0,0.1,0,0.1-0.1,0.2
		c0,0-0.1,0.1-0.2,0.1h-15.6c0,0.2,0,0.4,0,0.6s0,0.4,0,0.6c0,1.7,0.2,3.2,0.6,4.4c0.4,1.3,1,2.4,1.7,3.2c0.7,0.9,1.6,1.5,2.7,2
		c1,0.5,2.2,0.7,3.5,0.7c1.1,0,2.1-0.1,2.9-0.4c0.8-0.2,1.5-0.5,2-0.8c0.5-0.3,1-0.6,1.2-0.8c0.3-0.2,0.5-0.4,0.5-0.4
		c0.1,0,0.1,0,0.2,0.1l0.1,0.1c-0.2,0.3-0.6,0.6-1,0.9c-0.5,0.3-1,0.6-1.6,0.9c-0.6,0.3-1.3,0.5-2.1,0.6c-0.7,0.2-1.5,0.2-2.3,0.2
		c-1.4,0-2.6-0.2-3.7-0.7c-1.1-0.5-2-1.2-2.8-2.1c-0.8-0.9-1.4-2-1.8-3.4c-0.4-1.3-0.6-2.8-0.6-4.5c0-1.5,0.2-2.8,0.6-4.1
		s1-2.3,1.7-3.2s1.7-1.6,2.8-2.1S653.6,281.7,655,281.7z M655,282.2c-1.2,0-2.3,0.2-3.3,0.6c-1,0.4-1.8,0.9-2.5,1.7
		s-1.3,1.6-1.7,2.6c-0.4,1-0.7,2.1-0.8,3.3h15.4c0-1.3-0.2-2.5-0.5-3.5c-0.4-1-0.9-1.9-1.5-2.5c-0.6-0.7-1.4-1.2-2.3-1.6
		S656,282.2,655,282.2z"/>
	<path d="M673.3,282.1h0.3c0.1,0,0.2,0,0.2,0.1c0.1,0.1,0.1,0.1,0.1,0.2l6.2,18.5c0.1,0.2,0.1,0.3,0.2,0.4c0,0.1,0.1,0.3,0.1,0.4
		c0-0.2,0.1-0.3,0.1-0.4c0-0.1,0.1-0.3,0.2-0.4l6.4-18.7c0-0.1,0.1-0.2,0.2-0.2h0.1c0.1,0,0.2,0.1,0.2,0.2l6.4,18.7
		c0.1,0.2,0.1,0.3,0.2,0.5c0,0.2,0.1,0.3,0.1,0.4c0.1-0.3,0.2-0.5,0.3-0.8l6.2-18.5c0.1-0.2,0.2-0.3,0.4-0.3h0.3l-6.9,20.2h-0.2
		c-0.1,0-0.2-0.1-0.2-0.2l-6.5-18.8c-0.1-0.2-0.1-0.4-0.2-0.6c0,0.1-0.1,0.2-0.1,0.3c0,0.1-0.1,0.2-0.1,0.3l-6.6,18.8
		c0,0.1-0.1,0.2-0.2,0.2h-0.2L673.3,282.1z"/>
	<path d="M707.8,274.6c0,0.3-0.1,0.5-0.4,0.8c-0.2,0.2-0.5,0.3-0.8,0.3c-0.3,0-0.6-0.1-0.8-0.3c-0.2-0.2-0.3-0.5-0.3-0.8
		c0-0.3,0.1-0.6,0.3-0.8c0.2-0.2,0.5-0.3,0.8-0.3c0.3,0,0.6,0.1,0.8,0.3C707.7,274,707.8,274.3,707.8,274.6z M706.9,282.1v20.2h-0.5
		v-20.2H706.9z"/>
	<path d="M719.8,302.6c-1.2,0-2.1-0.3-2.8-1c-0.7-0.6-1-1.7-1-3.2v-15.1h-3.3c-0.2,0-0.3-0.1-0.3-0.2V283l3.6-0.1l0.2-8.1
		c0-0.1,0-0.1,0.1-0.2c0-0.1,0.1-0.1,0.2-0.1h0.1v8.4h6.9v0.4h-6.9v15.1c0,0.7,0.1,1.3,0.3,1.7c0.2,0.5,0.4,0.9,0.7,1.2
		c0.3,0.3,0.7,0.5,1.1,0.6c0.4,0.1,0.8,0.2,1.3,0.2c0.6,0,1.1-0.1,1.5-0.3c0.4-0.2,0.8-0.4,1.1-0.6c0.3-0.2,0.5-0.4,0.7-0.6
		c0.2-0.2,0.3-0.3,0.4-0.3c0.1,0,0.1,0,0.2,0.1l0.1,0.1c-0.2,0.3-0.5,0.5-0.8,0.8s-0.6,0.4-1,0.6s-0.7,0.3-1.1,0.4
		C720.6,302.6,720.2,302.6,719.8,302.6z"/>
	<path d="M729,302.3v-29.7h0.5v13.7c0.5-0.7,1-1.3,1.6-1.9c0.6-0.6,1.2-1,1.9-1.4c0.7-0.4,1.4-0.7,2.1-0.9c0.7-0.2,1.5-0.3,2.3-0.3
		c2.2,0,3.9,0.7,5,2c1.1,1.3,1.7,3.2,1.7,5.6v13h-0.5v-13c0-1.1-0.1-2.1-0.4-3c-0.2-0.9-0.6-1.6-1.1-2.3c-0.5-0.6-1.2-1.1-1.9-1.4
		s-1.7-0.5-2.7-0.5c-1.6,0-3,0.4-4.4,1.3c-1.3,0.8-2.5,2-3.5,3.5v15.4H729z"/>
	<path d="M771.2,302.3c-0.2,0-0.3-0.1-0.3-0.3l-0.1-3.3c-0.6,0.6-1.2,1.2-1.7,1.6c-0.6,0.5-1.2,0.9-1.8,1.2
		c-0.6,0.3-1.3,0.6-2.1,0.8c-0.7,0.2-1.6,0.3-2.5,0.3c-0.6,0-1.2-0.1-1.8-0.3c-0.6-0.2-1.2-0.5-1.7-0.9c-0.5-0.4-0.9-0.9-1.2-1.6
		c-0.3-0.6-0.5-1.4-0.5-2.3c0-0.9,0.3-1.7,0.8-2.4s1.3-1.3,2.4-1.8s2.5-0.9,4.1-1.2c1.7-0.3,3.6-0.5,5.9-0.5v-2.6
		c0-1.1-0.1-2-0.4-2.8c-0.2-0.8-0.6-1.5-1-2.1c-0.5-0.6-1-1-1.7-1.3s-1.5-0.5-2.4-0.5c-0.7,0-1.4,0.1-1.9,0.2
		c-0.6,0.2-1.1,0.3-1.5,0.6c-0.5,0.2-0.8,0.5-1.2,0.7c-0.3,0.3-0.6,0.5-0.9,0.7c-0.2,0.2-0.4,0.4-0.6,0.6c-0.2,0.2-0.3,0.2-0.3,0.2
		c-0.1,0-0.1,0-0.2-0.1l-0.1-0.1c1-1,2-1.8,3.1-2.4s2.3-0.8,3.7-0.8c1,0,1.9,0.2,2.7,0.5s1.4,0.8,1.9,1.4c0.5,0.6,0.9,1.4,1.1,2.3
		c0.2,0.9,0.4,1.9,0.4,3L771.2,302.3L771.2,302.3z M762.7,302.2c0.9,0,1.8-0.1,2.6-0.3c0.8-0.2,1.5-0.5,2.1-0.9s1.2-0.8,1.8-1.3
		s1.1-1,1.6-1.5v-6.2c-4.3,0.1-7.5,0.7-9.6,1.6s-3.1,2.3-3.1,4c0,0.8,0.1,1.5,0.4,2.1c0.3,0.6,0.6,1.1,1.1,1.4
		c0.4,0.4,0.9,0.7,1.5,0.8C761.5,302.1,762.1,302.2,762.7,302.2z"/>
	<path d="M800.6,276.1c-0.1,0.1-0.1,0.1-0.2,0.1c-0.1,0-0.3-0.1-0.6-0.4c-0.3-0.3-0.6-0.6-1.1-0.9s-1.1-0.6-1.9-0.9
		c-0.8-0.3-1.7-0.4-2.9-0.4c-1.2,0-2.2,0.2-3.1,0.5s-1.7,0.8-2.3,1.5c-0.6,0.6-1.1,1.3-1.4,2.1c-0.3,0.8-0.5,1.6-0.5,2.5
		c0,1.1,0.2,2,0.6,2.8c0.4,0.7,1,1.4,1.7,1.9c0.7,0.5,1.5,0.9,2.4,1.3s1.8,0.7,2.8,1c0.9,0.3,1.9,0.6,2.8,1s1.7,0.8,2.4,1.3
		s1.3,1.2,1.7,2s0.6,1.7,0.6,2.9c0,1.2-0.2,2.3-0.6,3.3c-0.4,1-1,1.9-1.7,2.7c-0.8,0.8-1.7,1.4-2.8,1.8c-1.1,0.4-2.4,0.7-3.8,0.7
		c-1,0-1.8-0.1-2.6-0.3c-0.8-0.2-1.5-0.4-2.1-0.7c-0.6-0.3-1.2-0.7-1.8-1.2c-0.5-0.5-1.1-1-1.5-1.6l0.1-0.1c0,0,0.1-0.1,0.1-0.1
		s0.1,0,0.1,0c0.1,0,0.2,0.1,0.4,0.3c0.2,0.2,0.4,0.4,0.6,0.7c0.3,0.3,0.6,0.6,1,0.9c0.4,0.3,0.9,0.6,1.4,0.9
		c0.5,0.3,1.2,0.5,1.9,0.7c0.7,0.2,1.5,0.3,2.4,0.3c1.3,0,2.5-0.2,3.6-0.6c1-0.4,1.9-1,2.6-1.7c0.7-0.7,1.3-1.6,1.6-2.5
		s0.6-2,0.6-3.1c0-0.9-0.1-1.7-0.4-2.4c-0.3-0.7-0.7-1.2-1.1-1.7c-0.5-0.5-1-0.9-1.7-1.2c-0.6-0.3-1.3-0.6-2.1-0.9
		c-0.7-0.3-1.5-0.5-2.2-0.7c-0.8-0.2-1.5-0.5-2.2-0.8c-0.7-0.3-1.4-0.6-2.1-0.9s-1.2-0.8-1.7-1.3s-0.9-1.1-1.1-1.8
		c-0.3-0.7-0.4-1.5-0.4-2.5c0-0.9,0.2-1.8,0.5-2.7c0.3-0.8,0.8-1.6,1.5-2.2c0.7-0.6,1.5-1.2,2.4-1.5c1-0.4,2.1-0.6,3.3-0.6
		c1.4,0,2.6,0.2,3.7,0.7c1.1,0.5,2.1,1.2,3,2.2L800.6,276.1z"/>
	<path d="M814.5,281.7c1.1,0,2,0.2,3,0.6c0.9,0.4,1.7,0.9,2.4,1.7s1.2,1.7,1.6,2.7s0.6,2.3,0.6,3.7c0,0.1,0,0.1-0.1,0.2
		c0,0-0.1,0.1-0.2,0.1h-15.6c0,0.2,0,0.4,0,0.6s0,0.4,0,0.6c0,1.7,0.2,3.2,0.6,4.4c0.4,1.3,1,2.4,1.7,3.2c0.7,0.9,1.6,1.5,2.7,2
		c1,0.5,2.2,0.7,3.5,0.7c1.1,0,2.1-0.1,2.9-0.4c0.8-0.2,1.5-0.5,2-0.8c0.5-0.3,1-0.6,1.2-0.8c0.3-0.2,0.5-0.4,0.5-0.4
		c0.1,0,0.1,0,0.2,0.1l0.1,0.1c-0.2,0.3-0.6,0.6-1,0.9c-0.5,0.3-1,0.6-1.6,0.9c-0.6,0.3-1.3,0.5-2.1,0.6c-0.7,0.2-1.5,0.2-2.3,0.2
		c-1.4,0-2.6-0.2-3.7-0.7c-1.1-0.5-2-1.2-2.8-2.1c-0.8-0.9-1.4-2-1.8-3.4c-0.4-1.3-0.6-2.8-0.6-4.5c0-1.5,0.2-2.8,0.6-4.1
		s1-2.3,1.7-3.2s1.7-1.6,2.8-2.1S813.2,281.7,814.5,281.7z M814.5,282.2c-1.2,0-2.3,0.2-3.3,0.6c-1,0.4-1.8,0.9-2.5,1.7
		s-1.3,1.6-1.7,2.6c-0.4,1-0.7,2.1-0.8,3.3h15.4c0-1.3-0.2-2.5-0.5-3.5c-0.4-1-0.9-1.9-1.5-2.5c-0.6-0.7-1.4-1.2-2.3-1.6
		S815.5,282.2,814.5,282.2z"/>
	<path d="M827.9,302.3v-20.2h0.1c0.2,0,0.3,0.1,0.3,0.3l0.1,5.6c0.3-1,0.6-1.9,1.1-2.7c0.4-0.8,0.9-1.4,1.5-2c0.6-0.5,1.2-0.9,2-1.2
		c0.7-0.3,1.6-0.4,2.5-0.4c0.7,0,1.3,0.1,1.8,0.2c0.6,0.1,1.1,0.3,1.6,0.6l-0.1,0.2c0,0-0.1,0.1-0.1,0.1c0,0-0.1,0.1-0.1,0.1
		c-0.1,0-0.2,0-0.3-0.1c-0.2-0.1-0.4-0.1-0.6-0.2c-0.3-0.1-0.6-0.2-0.9-0.2c-0.4-0.1-0.8-0.1-1.3-0.1c-1.8,0-3.3,0.6-4.4,1.8
		c-1.1,1.2-2,2.9-2.6,5v13.3H827.9z"/>
	<path d="M841.1,282.1h0.3c0.1,0,0.2,0,0.2,0.1c0.1,0.1,0.1,0.1,0.1,0.2l8,18.5c0.1,0.1,0.1,0.2,0.2,0.4c0,0.1,0.1,0.3,0.1,0.4
		c0-0.1,0.1-0.3,0.1-0.4c0-0.1,0.1-0.2,0.2-0.4l8-18.5c0.1-0.2,0.2-0.3,0.4-0.3h0.3l-8.8,20.2h-0.4L841.1,282.1z"/>
	<path d="M870.3,281.7c1.1,0,2,0.2,3,0.6c0.9,0.4,1.7,0.9,2.4,1.7s1.2,1.7,1.6,2.7s0.6,2.3,0.6,3.7c0,0.1,0,0.1-0.1,0.2
		c0,0-0.1,0.1-0.2,0.1H862c0,0.2,0,0.4,0,0.6s0,0.4,0,0.6c0,1.7,0.2,3.2,0.6,4.4c0.4,1.3,1,2.4,1.7,3.2c0.7,0.9,1.6,1.5,2.7,2
		c1,0.5,2.2,0.7,3.5,0.7c1.1,0,2.1-0.1,2.9-0.4c0.8-0.2,1.5-0.5,2-0.8c0.5-0.3,1-0.6,1.2-0.8c0.3-0.2,0.5-0.4,0.5-0.4
		c0.1,0,0.1,0,0.2,0.1l0.1,0.1c-0.2,0.3-0.6,0.6-1,0.9c-0.5,0.3-1,0.6-1.6,0.9c-0.6,0.3-1.3,0.5-2.1,0.6c-0.7,0.2-1.5,0.2-2.3,0.2
		c-1.4,0-2.6-0.2-3.7-0.7c-1.1-0.5-2-1.2-2.8-2.1c-0.8-0.9-1.4-2-1.8-3.4c-0.4-1.3-0.6-2.8-0.6-4.5c0-1.5,0.2-2.8,0.6-4.1
		s1-2.3,1.7-3.2s1.7-1.6,2.8-2.1S868.9,281.7,870.3,281.7z M870.3,282.2c-1.2,0-2.3,0.2-3.3,0.6c-1,0.4-1.8,0.9-2.5,1.7
		s-1.3,1.6-1.7,2.6c-0.4,1-0.7,2.1-0.8,3.3h15.4c0-1.3-0.2-2.5-0.5-3.5c-0.4-1-0.9-1.9-1.5-2.5c-0.6-0.7-1.4-1.2-2.3-1.6
		S871.3,282.2,870.3,282.2z"/>
	<path d="M883.7,302.3v-20.2h0.1c0.2,0,0.3,0.1,0.3,0.3l0.1,5.6c0.3-1,0.6-1.9,1.1-2.7c0.4-0.8,0.9-1.4,1.5-2c0.6-0.5,1.2-0.9,2-1.2
		c0.7-0.3,1.6-0.4,2.5-0.4c0.7,0,1.3,0.1,1.8,0.2c0.6,0.1,1.1,0.3,1.6,0.6l-0.1,0.2c0,0-0.1,0.1-0.1,0.1c0,0-0.1,0.1-0.1,0.1
		c-0.1,0-0.2,0-0.3-0.1c-0.2-0.1-0.4-0.1-0.6-0.2c-0.3-0.1-0.6-0.2-0.9-0.2c-0.4-0.1-0.8-0.1-1.3-0.1c-1.8,0-3.3,0.6-4.4,1.8
		c-1.1,1.2-2,2.9-2.6,5v13.3H883.7z"/>
	<path d="M922.4,276.1c-0.1,0.1-0.1,0.1-0.2,0.1c-0.1,0-0.3-0.1-0.6-0.4c-0.3-0.3-0.6-0.6-1.1-0.9s-1.1-0.6-1.9-0.9
		c-0.8-0.3-1.7-0.4-2.9-0.4c-1.2,0-2.2,0.2-3.1,0.5s-1.7,0.8-2.3,1.5c-0.6,0.6-1.1,1.3-1.4,2.1c-0.3,0.8-0.5,1.6-0.5,2.5
		c0,1.1,0.2,2,0.6,2.8c0.4,0.7,1,1.4,1.7,1.9c0.7,0.5,1.5,0.9,2.4,1.3s1.8,0.7,2.8,1c0.9,0.3,1.9,0.6,2.8,1s1.7,0.8,2.4,1.3
		s1.3,1.2,1.7,2s0.6,1.7,0.6,2.9c0,1.2-0.2,2.3-0.6,3.3c-0.4,1-1,1.9-1.7,2.7c-0.8,0.8-1.7,1.4-2.8,1.8c-1.1,0.4-2.4,0.7-3.8,0.7
		c-1,0-1.8-0.1-2.6-0.3c-0.8-0.2-1.5-0.4-2.1-0.7c-0.6-0.3-1.2-0.7-1.8-1.2c-0.5-0.5-1.1-1-1.5-1.6l0.1-0.1c0,0,0.1-0.1,0.1-0.1
		s0.1,0,0.1,0c0.1,0,0.2,0.1,0.4,0.3c0.2,0.2,0.4,0.4,0.6,0.7c0.3,0.3,0.6,0.6,1,0.9c0.4,0.3,0.9,0.6,1.4,0.9
		c0.5,0.3,1.2,0.5,1.9,0.7c0.7,0.2,1.5,0.3,2.4,0.3c1.3,0,2.5-0.2,3.6-0.6c1-0.4,1.9-1,2.6-1.7c0.7-0.7,1.3-1.6,1.6-2.5
		s0.6-2,0.6-3.1c0-0.9-0.1-1.7-0.4-2.4c-0.3-0.7-0.7-1.2-1.1-1.7c-0.5-0.5-1-0.9-1.7-1.2c-0.6-0.3-1.3-0.6-2.1-0.9
		c-0.7-0.3-1.5-0.5-2.2-0.7c-0.8-0.2-1.5-0.5-2.2-0.8c-0.7-0.3-1.4-0.6-2.1-0.9s-1.2-0.8-1.7-1.3s-0.9-1.1-1.1-1.8
		c-0.3-0.7-0.4-1.5-0.4-2.5c0-0.9,0.2-1.8,0.5-2.7c0.3-0.8,0.8-1.6,1.5-2.2c0.7-0.6,1.5-1.2,2.4-1.5c1-0.4,2.1-0.6,3.3-0.6
		c1.4,0,2.6,0.2,3.7,0.7c1.1,0.5,2.1,1.2,3,2.2L922.4,276.1z"/>
	<path d="M931.2,274.6c0,0.3-0.1,0.5-0.4,0.8c-0.2,0.2-0.5,0.3-0.8,0.3c-0.3,0-0.6-0.1-0.8-0.3c-0.2-0.2-0.3-0.5-0.3-0.8
		c0-0.3,0.1-0.6,0.3-0.8c0.2-0.2,0.5-0.3,0.8-0.3c0.3,0,0.6,0.1,0.8,0.3C931.1,274,931.2,274.3,931.2,274.6z M930.3,282.1v20.2h-0.5
		v-20.2H930.3z"/>
	<path d="M952.6,302.3c-0.2,0-0.3-0.1-0.3-0.3l-0.1-3.9c-0.9,1.4-2,2.5-3.3,3.3s-2.7,1.2-4.2,1.2c-2.6,0-4.6-0.8-6-2.5
		c-1.4-1.7-2.1-4.3-2.1-7.8c0-1.5,0.2-2.8,0.6-4.1c0.4-1.3,0.9-2.4,1.7-3.3c0.7-0.9,1.7-1.7,2.8-2.2c1.1-0.5,2.4-0.8,3.9-0.8
		c1.5,0,2.8,0.3,3.9,0.9c1.1,0.6,2.1,1.5,2.8,2.7v-12.8h0.5v29.7H952.6z M944.8,302.1c1.5,0,2.9-0.4,4.2-1.3c1.3-0.8,2.4-2,3.3-3.5
		V286c-0.9-1.4-1.9-2.4-3-3c-1.1-0.6-2.3-0.9-3.8-0.9s-2.6,0.3-3.7,0.8c-1,0.5-1.9,1.2-2.6,2.1s-1.2,2-1.6,3.2s-0.5,2.5-0.5,4
		c0,3.4,0.6,5.8,1.9,7.5C940.4,301.3,942.3,302.1,944.8,302.1z"/>
	<path d="M967.6,281.7c1.1,0,2,0.2,3,0.6c0.9,0.4,1.7,0.9,2.4,1.7s1.2,1.7,1.6,2.7s0.6,2.3,0.6,3.7c0,0.1,0,0.1-0.1,0.2
		c0,0-0.1,0.1-0.2,0.1h-15.6c0,0.2,0,0.4,0,0.6s0,0.4,0,0.6c0,1.7,0.2,3.2,0.6,4.4c0.4,1.3,1,2.4,1.7,3.2c0.7,0.9,1.6,1.5,2.7,2
		c1,0.5,2.2,0.7,3.5,0.7c1.1,0,2.1-0.1,2.9-0.4c0.8-0.2,1.5-0.5,2-0.8c0.5-0.3,1-0.6,1.2-0.8c0.3-0.2,0.5-0.4,0.5-0.4
		c0.1,0,0.1,0,0.2,0.1l0.1,0.1c-0.2,0.3-0.6,0.6-1,0.9c-0.5,0.3-1,0.6-1.6,0.9c-0.6,0.3-1.3,0.5-2.1,0.6c-0.7,0.2-1.5,0.2-2.3,0.2
		c-1.4,0-2.6-0.2-3.7-0.7c-1.1-0.5-2-1.2-2.8-2.1c-0.8-0.9-1.4-2-1.8-3.4c-0.4-1.3-0.6-2.8-0.6-4.5c0-1.5,0.2-2.8,0.6-4.1
		s1-2.3,1.7-3.2s1.7-1.6,2.8-2.1S966.2,281.7,967.6,281.7z M967.6,282.2c-1.2,0-2.3,0.2-3.3,0.6c-1,0.4-1.8,0.9-2.5,1.7
		s-1.3,1.6-1.7,2.6c-0.4,1-0.7,2.1-0.8,3.3h15.4c0-1.3-0.2-2.5-0.5-3.5c-0.4-1-0.9-1.9-1.5-2.5c-0.6-0.7-1.4-1.2-2.3-1.6
		S968.6,282.2,967.6,282.2z"/>
	<path d="M991.5,288.3v13.9H991v-28.9h6.7c3,0,5.3,0.6,6.9,1.8c1.6,1.2,2.4,3,2.4,5.5c0,1.2-0.2,2.2-0.7,3.2
		c-0.5,0.9-1.1,1.7-1.9,2.4c-0.8,0.7-1.8,1.2-3,1.5c-1.1,0.4-2.4,0.6-3.8,0.6c0.1,0.1,0.3,0.1,0.4,0.2c0.1,0.1,0.2,0.2,0.3,0.3
		l11.3,13.4h-0.3c-0.1,0-0.2,0-0.3,0c-0.1,0-0.2-0.1-0.3-0.2l-10.8-13c-0.1-0.2-0.2-0.3-0.4-0.4c-0.1-0.1-0.2-0.2-0.4-0.2
		c-0.1-0.1-0.3-0.1-0.5-0.1c-0.2,0-0.4,0-0.7,0H991.5z M991.5,287.9h5.8c1.4,0,2.7-0.2,3.8-0.5c1.1-0.3,2.1-0.8,2.9-1.4
		c0.8-0.6,1.4-1.4,1.9-2.3s0.6-1.9,0.6-3.1c0-2.4-0.8-4.1-2.3-5.2c-1.5-1.1-3.7-1.6-6.6-1.6h-6.2V287.9z"/>
	<path d="M1021.7,281.7c1.1,0,2,0.2,3,0.6c0.9,0.4,1.7,0.9,2.4,1.7s1.2,1.7,1.6,2.7s0.6,2.3,0.6,3.7c0,0.1,0,0.1-0.1,0.2
		c0,0-0.1,0.1-0.2,0.1h-15.6c0,0.2,0,0.4,0,0.6s0,0.4,0,0.6c0,1.7,0.2,3.2,0.6,4.4c0.4,1.3,1,2.4,1.7,3.2c0.7,0.9,1.6,1.5,2.7,2
		c1,0.5,2.2,0.7,3.5,0.7c1.1,0,2.1-0.1,2.9-0.4c0.8-0.2,1.5-0.5,2-0.8c0.5-0.3,1-0.6,1.2-0.8c0.3-0.2,0.5-0.4,0.5-0.4
		c0.1,0,0.1,0,0.2,0.1l0.1,0.1c-0.2,0.3-0.6,0.6-1,0.9c-0.5,0.3-1,0.6-1.6,0.9c-0.6,0.3-1.3,0.5-2.1,0.6c-0.7,0.2-1.5,0.2-2.3,0.2
		c-1.4,0-2.6-0.2-3.7-0.7c-1.1-0.5-2-1.2-2.8-2.1c-0.8-0.9-1.4-2-1.8-3.4c-0.4-1.3-0.6-2.8-0.6-4.5c0-1.5,0.2-2.8,0.6-4.1
		s1-2.3,1.7-3.2s1.7-1.6,2.8-2.1S1020.3,281.7,1021.7,281.7z M1021.7,282.2c-1.2,0-2.3,0.2-3.3,0.6c-1,0.4-1.8,0.9-2.5,1.7
		s-1.3,1.6-1.7,2.6c-0.4,1-0.7,2.1-0.8,3.3h15.4c0-1.3-0.2-2.5-0.5-3.5c-0.4-1-0.9-1.9-1.5-2.5c-0.6-0.7-1.4-1.2-2.3-1.6
		S1022.7,282.2,1021.7,282.2z"/>
	<path d="M1035.1,302.3v-20.2h0.1c0.2,0,0.3,0.1,0.3,0.3l0.1,3.9c0.5-0.7,1-1.3,1.6-1.9c0.6-0.6,1.2-1,1.9-1.4
		c0.7-0.4,1.4-0.7,2.1-0.9c0.7-0.2,1.5-0.3,2.3-0.3c2.2,0,3.9,0.7,5,2c1.1,1.3,1.7,3.2,1.7,5.6v13h-0.5v-13c0-1.1-0.1-2.1-0.4-3
		c-0.2-0.9-0.6-1.6-1.1-2.3c-0.5-0.6-1.2-1.1-1.9-1.4s-1.7-0.5-2.7-0.5c-1.6,0-3,0.4-4.4,1.3c-1.3,0.8-2.5,2-3.5,3.5v15.4H1035.1z"
		/>
	<path d="M1071.2,302.3c-0.2,0-0.3-0.1-0.3-0.3l-0.1-3.9c-0.9,1.4-2,2.5-3.3,3.3s-2.7,1.2-4.2,1.2c-2.6,0-4.6-0.8-6-2.5
		c-1.4-1.7-2.1-4.3-2.1-7.8c0-1.5,0.2-2.8,0.6-4.1c0.4-1.3,0.9-2.4,1.7-3.3c0.7-0.9,1.7-1.7,2.8-2.2c1.1-0.5,2.4-0.8,3.9-0.8
		c1.5,0,2.8,0.3,3.9,0.9c1.1,0.6,2.1,1.5,2.8,2.7v-12.8h0.5v29.7H1071.2z M1063.4,302.1c1.5,0,2.9-0.4,4.2-1.3
		c1.3-0.8,2.4-2,3.3-3.5V286c-0.9-1.4-1.9-2.4-3-3c-1.1-0.6-2.3-0.9-3.8-0.9s-2.6,0.3-3.7,0.8c-1,0.5-1.9,1.2-2.6,2.1
		s-1.2,2-1.6,3.2s-0.5,2.5-0.5,4c0,3.4,0.6,5.8,1.9,7.5C1059,301.3,1060.9,302.1,1063.4,302.1z"/>
	<path d="M1086.2,281.7c1.1,0,2,0.2,3,0.6c0.9,0.4,1.7,0.9,2.4,1.7s1.2,1.7,1.6,2.7s0.6,2.3,0.6,3.7c0,0.1,0,0.1-0.1,0.2
		c0,0-0.1,0.1-0.2,0.1h-15.6c0,0.2,0,0.4,0,0.6s0,0.4,0,0.6c0,1.7,0.2,3.2,0.6,4.4c0.4,1.3,1,2.4,1.7,3.2c0.7,0.9,1.6,1.5,2.7,2
		c1,0.5,2.2,0.7,3.5,0.7c1.1,0,2.1-0.1,2.9-0.4c0.8-0.2,1.5-0.5,2-0.8c0.5-0.3,1-0.6,1.2-0.8c0.3-0.2,0.5-0.4,0.5-0.4
		c0.1,0,0.1,0,0.2,0.1l0.1,0.1c-0.2,0.3-0.6,0.6-1,0.9c-0.5,0.3-1,0.6-1.6,0.9c-0.6,0.3-1.3,0.5-2.1,0.6c-0.7,0.2-1.5,0.2-2.3,0.2
		c-1.4,0-2.6-0.2-3.7-0.7c-1.1-0.5-2-1.2-2.8-2.1c-0.8-0.9-1.4-2-1.8-3.4c-0.4-1.3-0.6-2.8-0.6-4.5c0-1.5,0.2-2.8,0.6-4.1
		s1-2.3,1.7-3.2s1.7-1.6,2.8-2.1S1084.8,281.7,1086.2,281.7z M1086.2,282.2c-1.2,0-2.3,0.2-3.3,0.6c-1,0.4-1.8,0.9-2.5,1.7
		s-1.3,1.6-1.7,2.6c-0.4,1-0.7,2.1-0.8,3.3h15.4c0-1.3-0.2-2.5-0.5-3.5c-0.4-1-0.9-1.9-1.5-2.5c-0.6-0.7-1.4-1.2-2.3-1.6
		S1087.2,282.2,1086.2,282.2z"/>
	<path d="M1099.5,302.3v-20.2h0.1c0.2,0,0.3,0.1,0.3,0.3l0.1,5.6c0.3-1,0.6-1.9,1.1-2.7c0.4-0.8,0.9-1.4,1.5-2
		c0.6-0.5,1.2-0.9,2-1.2c0.7-0.3,1.6-0.4,2.5-0.4c0.7,0,1.3,0.1,1.8,0.2c0.6,0.1,1.1,0.3,1.6,0.6l-0.1,0.2c0,0-0.1,0.1-0.1,0.1
		c0,0-0.1,0.1-0.1,0.1c-0.1,0-0.2,0-0.3-0.1c-0.2-0.1-0.4-0.1-0.6-0.2c-0.3-0.1-0.6-0.2-0.9-0.2c-0.4-0.1-0.8-0.1-1.3-0.1
		c-1.8,0-3.3,0.6-4.4,1.8c-1.1,1.2-2,2.9-2.6,5v13.3H1099.5z"/>
</g>
<line class="st8" x1="361.1" y1="241.9" x2="1141" y2="241.9"/>
</svg>
